<svg xmlns="http://www.w3.org/2000/svg" width="25" height="24" viewBox="0 0 25 24" fill="none"><path fill-rule="evenodd" clip-rule="evenodd" d="M12.5 24C19.1274 24 24.5 18.6274 24.5 12C24.5 5.37258 19.1274 0 12.5 0C5.87258 0 0.5 5.37258 0.5 12C0.5 18.6274 5.87258 24 12.5 24ZM15.4721 18.5011L9 12L15.4721 5.49893C15.762 5.2077 15.8097 4.7538 15.5868 4.4086C15.2849 3.94112 14.6287 3.87132 14.2352 4.26482L6.5 12L14.2352 19.7352C14.6287 20.1287 15.2849 20.0589 15.5868 19.5914C15.8097 19.2462 15.762 18.7923 15.4721 18.5011Z" fill="#818285"/></svg>