<svg xmlns="http://www.w3.org/2000/svg" width="25" height="24" viewBox="0 0 25 24" fill="none"><path fill-rule="evenodd" clip-rule="evenodd" d="M12.5 24C19.1274 24 24.5 18.6274 24.5 12C24.5 5.37258 19.1274 0 12.5 0C5.87258 0 0.5 5.37258 0.5 12C0.5 18.6274 5.87258 24 12.5 24ZM9.50996 18.4878L15.9688 12L9.50996 5.51225C9.21329 5.21424 9.16769 4.74846 9.40094 4.39859C9.71064 3.93404 10.3682 3.86954 10.7622 4.26506L18.4688 12L10.7622 19.7349C10.3682 20.1305 9.71064 20.066 9.40094 19.6014C9.16769 19.2515 9.21329 18.7858 9.50996 18.4878Z" fill="#818285"/></svg>