<svg xmlns="http://www.w3.org/2000/svg" width="16" height="16" viewBox="0 0 16 16" fill="none"><path fill-rule="evenodd" clip-rule="evenodd" d="M8 16C12.4183 16 16 12.4183 16 8C16 3.58172 12.4183 0 8 0C3.58172 0 0 3.58172 0 8C0 12.4183 3.58172 16 8 16ZM6.00664 12.3252L10.3125 8L6.00664 3.67483C5.80886 3.47616 5.77846 3.16564 5.93396 2.93239C6.14043 2.62269 6.57879 2.57969 6.8415 2.84337L11.9792 8L6.8415 13.1566C6.57879 13.4203 6.14043 13.3773 5.93396 13.0676C5.77846 12.8344 5.80886 12.5238 6.00664 12.3252Z" fill="#67B044"/></svg>