<svg xmlns="http://www.w3.org/2000/svg" width="13" height="12" viewBox="0 0 13 12" fill="none"><path fill-rule="evenodd" clip-rule="evenodd" d="M6.75 12C10.0637 12 12.75 9.31371 12.75 6C12.75 2.68629 10.0637 0 6.75 0C3.43629 0 0.75 2.68629 0.75 6C0.75 9.31371 3.43629 12 6.75 12ZM6.75 10.6667C9.32733 10.6667 11.4167 8.57733 11.4167 6C11.4167 3.42267 9.32733 1.33333 6.75 1.33333C4.17267 1.33333 2.08333 3.42267 2.08333 6C2.08333 8.57733 4.17267 10.6667 6.75 10.6667ZM6.08333 3.33333C6.08333 2.96514 6.38181 2.66667 6.75 2.66667C7.11819 2.66667 7.41667 2.96514 7.41667 3.33333V5.72386L8.35948 6.66667C8.61982 6.92702 8.61983 7.34913 8.35948 7.60948C8.09913 7.86983 7.67702 7.86983 7.41667 7.60948L6.47386 6.66667C6.44035 6.63316 6.41115 6.59697 6.38627 6.55879C6.20389 6.43983 6.08333 6.23399 6.08333 6V3.33333Z" fill="#818285"/></svg>