<svg xmlns="http://www.w3.org/2000/svg" width="146" height="24" viewBox="0 0 146 24" fill="none"><path d="M14.232 9.048C13.64 8.36 12.936 7.824 12.12 7.44C11.32 7.056 10.504 6.864 9.672 6.864C8.632 6.864 7.68 7.112 6.816 7.608C5.952 8.104 5.272 8.792 4.776 9.672C4.28 10.536 4.032 11.488 4.032 12.528C4.032 13.568 4.28 14.528 4.776 15.408C5.272 16.272 5.952 16.96 6.816 17.472C7.68 17.968 8.632 18.216 9.672 18.216C10.472 18.216 11.272 18.04 12.072 17.688C12.888 17.336 13.608 16.848 14.232 16.224L16.128 18.336C15.248 19.232 14.224 19.944 13.056 20.472C11.888 20.984 10.704 21.24 9.504 21.24C7.888 21.24 6.408 20.856 5.064 20.088C3.72 19.32 2.664 18.28 1.896 16.968C1.128 15.64 0.744 14.176 0.744 12.576C0.744 10.976 1.136 9.52 1.92 8.208C2.704 6.896 3.768 5.864 5.112 5.112C6.472 4.36 7.976 3.984 9.624 3.984C10.824 3.984 12 4.224 13.152 4.704C14.304 5.184 15.288 5.848 16.104 6.696L14.232 9.048ZM26.0788 3.984C27.7428 3.984 29.2548 4.36 30.6148 5.112C31.9908 5.864 33.0708 6.896 33.8548 8.208C34.6388 9.52 35.0308 10.976 35.0308 12.576C35.0308 14.176 34.6388 15.64 33.8548 16.968C33.0708 18.28 31.9908 19.32 30.6148 20.088C29.2548 20.856 27.7428 21.24 26.0788 21.24C24.4148 21.24 22.8948 20.856 21.5188 20.088C20.1588 19.32 19.0868 18.28 18.3028 16.968C17.5188 15.64 17.1268 14.176 17.1268 12.576C17.1268 10.976 17.5188 9.52 18.3028 8.208C19.0868 6.896 20.1588 5.864 21.5188 5.112C22.8948 4.36 24.4148 3.984 26.0788 3.984ZM26.1268 6.864C25.1028 6.864 24.1508 7.12 23.2708 7.632C22.3908 8.128 21.6948 8.816 21.1828 9.696C20.6708 10.56 20.4148 11.52 20.4148 12.576C20.4148 13.632 20.6708 14.6 21.1828 15.48C21.7108 16.36 22.4068 17.056 23.2708 17.568C24.1508 18.08 25.1028 18.336 26.1268 18.336C27.1348 18.336 28.0708 18.08 28.9348 17.568C29.7988 17.056 30.4788 16.36 30.9748 15.48C31.4868 14.6 31.7428 13.632 31.7428 12.576C31.7428 11.52 31.4868 10.56 30.9748 9.696C30.4788 8.816 29.7988 8.128 28.9348 7.632C28.0708 7.12 27.1348 6.864 26.1268 6.864ZM35.6061 4.2H49.3101V7.056H44.0781V21H40.8381V7.056H35.6061V4.2ZM51.5874 4.2H63.8994V7.008H54.8034V11.16H62.9634V13.968H54.8034V18.192H64.1874V21H51.5874V4.2Z" fill="black"/><path d="M72.024 4.2H78.768V21H75.552V7.032H72.024V4.2ZM89.6601 4.056C91.9801 4.056 93.7641 4.792 95.0121 6.264C96.2601 7.736 96.8841 9.848 96.8841 12.6C96.8841 15.336 96.2601 17.44 95.0121 18.912C93.7641 20.384 91.9801 21.12 89.6601 21.12C87.3401 21.12 85.5561 20.384 84.3081 18.912C83.0601 17.44 82.4361 15.336 82.4361 12.6C82.4361 9.848 83.0601 7.736 84.3081 6.264C85.5561 4.792 87.3401 4.056 89.6601 4.056ZM89.6601 6.6C88.3321 6.6 87.3481 7.088 86.7081 8.064C86.0681 9.024 85.7481 10.536 85.7481 12.6C85.7481 14.648 86.0681 16.16 86.7081 17.136C87.3481 18.112 88.3321 18.6 89.6601 18.6C90.9881 18.6 91.9721 18.112 92.6121 17.136C93.2521 16.16 93.5721 14.648 93.5721 12.6C93.5721 10.536 93.2521 9.024 92.6121 8.064C91.9721 7.088 90.9881 6.6 89.6601 6.6ZM106.605 4.056C108.925 4.056 110.709 4.792 111.957 6.264C113.205 7.736 113.829 9.848 113.829 12.6C113.829 15.336 113.205 17.44 111.957 18.912C110.709 20.384 108.925 21.12 106.605 21.12C104.285 21.12 102.501 20.384 101.253 18.912C100.005 17.44 99.3814 15.336 99.3814 12.6C99.3814 9.848 100.005 7.736 101.253 6.264C102.501 4.792 104.285 4.056 106.605 4.056ZM106.605 6.6C105.277 6.6 104.293 7.088 103.653 8.064C103.013 9.024 102.693 10.536 102.693 12.6C102.693 14.648 103.013 16.16 103.653 17.136C104.293 18.112 105.277 18.6 106.605 18.6C107.933 18.6 108.917 18.112 109.557 17.136C110.197 16.16 110.517 14.648 110.517 12.6C110.517 10.536 110.197 9.024 109.557 8.064C108.917 7.088 107.933 6.6 106.605 6.6Z" fill="black"/><circle cx="134" cy="12" r="12" fill="#67B044"/><path fill-rule="evenodd" clip-rule="evenodd" d="M135 4H133V11H126V13H133V20H135V13H142V11H135V4Z" fill="white"/></svg>