<svg xmlns="http://www.w3.org/2000/svg" width="24" height="24" viewBox="0 0 24 24" fill="none"><path fill-rule="evenodd" clip-rule="evenodd" d="M12 24C18.6274 24 24 18.6274 24 12C24 5.37258 18.6274 0 12 0C5.37258 0 0 5.37258 0 12C0 18.6274 5.37258 24 12 24ZM18.4878 9.00996L12 15.4688L5.51225 9.00996C5.21424 8.71329 4.74846 8.66769 4.39859 8.90094C3.93404 9.21064 3.86954 9.86818 4.26506 10.2622L12 17.9688L19.7349 10.2622C20.1305 9.86818 20.066 9.21064 19.6014 8.90094C19.2515 8.66769 18.7858 8.71329 18.4878 9.00996Z" fill="#67B044"/></svg>