<svg xmlns="http://www.w3.org/2000/svg" width="24" height="24" viewBox="0 0 24 24" fill="none"><path fill-rule="evenodd" clip-rule="evenodd" d="M12 24C18.6274 24 24 18.6274 24 12C24 5.37258 18.6274 0 12 0C5.37258 0 0 5.37258 0 12C0 18.6274 5.37258 24 12 24ZM14.1001 8C14.1001 6.84 13.1601 5.9 12.0001 5.9C10.8401 5.9 9.90006 6.84 9.90006 8C9.90006 9.16 10.8401 10.1 12.0001 10.1C13.1601 10.1 14.1001 9.16 14.1001 8ZM18.1001 17C18.1001 16.36 14.9701 14.9 12.0001 14.9C9.03006 14.9 5.90006 16.36 5.90006 17V18.1H18.1001V17ZM8.00006 8C8.00006 5.79 9.79006 4 12.0001 4C14.2101 4 16.0001 5.79 16.0001 8C16.0001 10.21 14.2101 12 12.0001 12C9.79006 12 8.00006 10.21 8.00006 8ZM4.00006 17C4.00006 14.34 9.33006 13 12.0001 13C14.6701 13 20.0001 14.34 20.0001 17V20H4.00006V17Z" fill="#818285"/></svg>