<?xml version="1.0" encoding="UTF-8" standalone="no"?><svg xmlns="http://www.w3.org/2000/svg" xmlns:xlink="http://www.w3.org/1999/xlink" xmlns:serif="http://www.serif.com/" width="100%" height="100%" viewBox="0 0 8 11" version="1.1" xml:space="preserve" style="fill-rule:evenodd;clip-rule:evenodd;stroke-linejoin:round;stroke-miterlimit:2;"><g id="Plan-de-travail1" serif:id="Plan de travail1" transform="matrix(1,0,0,1,-4,-2.40002)"><rect x="4" y="2.4" width="8" height="10.462" style="fill:none;"/><clipPath id="_clip1"><rect x="4" y="2.4" width="8" height="10.462"/></clipPath><g clip-path="url(#_clip1)"><g transform="matrix(1,0,0,1,0,0.40002)"><path d="M9.982,5.893L9.982,6.708L11.077,6.708L11.077,5.893C11.077,4.993 10.746,3.994 10.196,3.391C9.648,2.788 8.863,2.4 8.002,2.4C7.138,2.4 6.352,2.788 5.804,3.389C5.254,3.992 4.923,4.991 4.923,5.891L4.923,6.708L6.021,6.708L6.021,5.893C6.021,5.301 6.227,4.568 6.606,4.152C6.973,3.742 7.479,3.506 7.998,3.506C8.521,3.506 9.027,3.742 9.394,4.146C9.773,4.568 9.982,5.301 9.982,5.893ZM4.615,12.862L11.385,12.862C11.641,12.862 12,12.511 12,12.246L12,7.323C12,7.059 11.792,6.708 11.533,6.708L4.467,6.708C4.208,6.708 4,7.061 4,7.323L4,12.246C4,12.511 4.357,12.862 4.615,12.862Z" style="fill:rgb(52,53,55);"/></g></g></g></svg>