<svg xmlns="http://www.w3.org/2000/svg" width="17" height="16" viewBox="0 0 17 16" fill="none"><path fill-rule="evenodd" clip-rule="evenodd" d="M11.8335 6C12.7077 6 13.4509 5.43909 13.7229 4.65753C13.7589 4.66354 13.7958 4.66667 13.8335 4.66667H14.5002C14.8684 4.66667 15.1668 4.36819 15.1668 4C15.1668 3.63181 14.8684 3.33333 14.5002 3.33333H13.8335C13.7958 3.33333 13.7589 3.33646 13.7229 3.34247C13.4509 2.5609 12.7077 2 11.8335 2C10.9593 2 10.2161 2.5609 9.9441 3.34247C9.90812 3.33646 9.87117 3.33333 9.8335 3.33333H2.50016C2.13197 3.33333 1.8335 3.63181 1.8335 4C1.8335 4.36819 2.13197 4.66667 2.50016 4.66667H9.8335C9.87118 4.66667 9.90812 4.66354 9.9441 4.65753C10.2161 5.4391 10.9593 6 11.8335 6ZM1.8335 8C1.8335 7.63181 2.13197 7.33333 2.50016 7.33333H3.16683C3.20451 7.33333 3.24146 7.33646 3.27743 7.34247C3.54939 6.5609 4.29261 6 5.16683 6C6.04105 6 6.78426 6.5609 7.05623 7.34247C7.0922 7.33646 7.12915 7.33333 7.16683 7.33333H14.5002C14.8684 7.33333 15.1668 7.63181 15.1668 8C15.1668 8.36819 14.8684 8.66667 14.5002 8.66667H7.16683C7.12915 8.66667 7.0922 8.66354 7.05623 8.65753C6.78426 9.4391 6.04105 10 5.16683 10C4.29261 10 3.54939 9.4391 3.27743 8.65753C3.24146 8.66354 3.20451 8.66667 3.16683 8.66667H2.50016C2.13197 8.66667 1.8335 8.36819 1.8335 8ZM1.8335 12C1.8335 11.6318 2.13197 11.3333 2.50016 11.3333H7.8335C7.87118 11.3333 7.90812 11.3365 7.9441 11.3425C8.21606 10.5609 8.95927 10 9.8335 10C10.7077 10 11.4509 10.5609 11.7229 11.3425C11.7589 11.3365 11.7958 11.3333 11.8335 11.3333H14.5002C14.8684 11.3333 15.1668 11.6318 15.1668 12C15.1668 12.3682 14.8684 12.6667 14.5002 12.6667H11.8335C11.7958 12.6667 11.7589 12.6635 11.7229 12.6575C11.4509 13.4391 10.7077 14 9.8335 14C8.95927 14 8.21606 13.4391 7.9441 12.6575C7.90812 12.6635 7.87117 12.6667 7.8335 12.6667H2.50016C2.13197 12.6667 1.8335 12.3682 1.8335 12ZM11.8335 4.66667C12.2017 4.66667 12.5002 4.36819 12.5002 4C12.5002 3.63181 12.2017 3.33333 11.8335 3.33333C11.4653 3.33333 11.1668 3.63181 11.1668 4C11.1668 4.36819 11.4653 4.66667 11.8335 4.66667ZM5.16683 8.66667C5.53502 8.66667 5.8335 8.36819 5.8335 8C5.8335 7.63181 5.53502 7.33333 5.16683 7.33333C4.79864 7.33333 4.50016 7.63181 4.50016 8C4.50016 8.36819 4.79864 8.66667 5.16683 8.66667ZM9.8335 12.6667C10.2017 12.6667 10.5002 12.3682 10.5002 12C10.5002 11.6318 10.2017 11.3333 9.8335 11.3333C9.46531 11.3333 9.16683 11.6318 9.16683 12C9.16683 12.3682 9.46531 12.6667 9.8335 12.6667Z" fill="#818285"/></svg>