<svg xmlns="http://www.w3.org/2000/svg" width="17" height="16" viewBox="0 0 17 16" fill="none"><path fill-rule="evenodd" clip-rule="evenodd" d="M13.75 6C15.4069 6 16.75 4.65685 16.75 3C16.75 1.34315 15.4069 0 13.75 0C12.0931 0 10.75 1.34315 10.75 3C10.75 3.27752 10.7877 3.54623 10.8582 3.80131L5.98211 5.99555C5.43292 5.38438 4.63635 5 3.75 5C2.09315 5 0.75 6.34315 0.75 8C0.75 9.65685 2.09315 11 3.75 11C4.63635 11 5.43292 10.6156 5.98211 10.0045L10.8582 12.1987C10.7877 12.4538 10.75 12.7225 10.75 13C10.75 14.6569 12.0931 16 13.75 16C15.4069 16 16.75 14.6569 16.75 13C16.75 11.3431 15.4069 10 13.75 10C13.0412 10 12.3898 10.2458 11.8764 10.6569L6.73079 8.34136C6.74348 8.22933 6.75 8.11542 6.75 8C6.75 7.88458 6.74348 7.77067 6.73079 7.65864L11.8764 5.34313C12.3898 5.75417 13.0412 6 13.75 6Z" fill="#67B044"/></svg>